<svg width="34" height="30" viewBox="0 0 34 30" fill="none" xmlns="http://www.w3.org/2000/svg">
<g clip-path="url(#clip0_1_7)">
<path d="M33.1654 3.52941C31.9754 4.14706 30.6927 4.55294 29.3636 4.74706C30.7236 3.81176 31.7745 2.32941 32.2691 0.547059C30.9864 1.42941 29.5645 2.04706 28.0654 2.4C26.8445 0.882353 25.1291 0 23.1818 0C19.55 0 16.5827 3.38824 16.5827 7.57059C16.5827 8.17059 16.6445 8.75294 16.7527 9.3C11.251 8.98235 6.35187 5.96471 3.09096 1.39412C2.51914 2.50588 2.1946 3.81176 2.1946 5.18824C2.1946 7.81765 3.35369 10.1471 5.14641 11.4706C4.04914 11.4706 3.02914 11.1176 2.13278 10.5882V10.6412C2.13278 14.3118 4.42005 17.3824 7.44914 18.0706C6.47663 18.3745 5.45564 18.4168 4.46641 18.1941C4.88618 19.6985 5.70825 21.0148 6.81708 21.9581C7.92591 22.9015 9.26575 23.4242 10.6482 23.4529C8.30475 25.5713 5.39987 26.7164 2.41096 26.7C1.88551 26.7 1.36005 26.6647 0.834595 26.5941C3.77096 28.7471 7.26369 30 11.0037 30C23.1818 30 29.8736 18.4588 29.8736 8.45294C29.8736 8.11765 29.8736 7.8 29.8582 7.46471C31.1564 6.40588 32.2691 5.06471 33.1654 3.52941Z" fill="#26C7EA"/>
</g>
<defs>
<clipPath id="clip0_1_7">
<rect width="34" height="30" fill="white"/>
</clipPath>
</defs>
</svg>
